# xmcd
#
# Track frame offsets:
#	150
#	17123
#	33348
#	50092
#	66814
#	84044
#	99126
#	115276
#	129087
#	149210
#	165202
#	180098
#
# Disc length: 2655 seconds
# Revision: 0
# Processed by: cddbd v1.5.2PL0 Copyright (c) Steve Scherf et al.
# Submitted via: dBpowerAMP V12.0
#
DISCID=8c0a5d0c
DTITLE=Blue Mafia - Hanging Tree
DYEAR=2016
DGENRE=Country
TTITLE0=Like A Mining Man
TTITLE1=Hanging Tree
TTITLE2=Sweet Mary Of The Mountains
TTITLE3=The Man You Know
TTITLE4=With Body and Soul
TTITLE5=Baby You're Gone
TTITLE6=Midnight Rain
TTITLE7=Loneliness And Desperation
TTITLE8=Say Won't You Be Mine
TTITLE9=You Belong With Me
TTITLE10=Life
TTITLE11=Who Are You
EXTD=
EXTT0=
EXTT1=
EXTT2=
EXTT3=
EXTT4=
EXTT5=
EXTT6=
EXTT7=
EXTT8=
EXTT9=
EXTT10=
EXTT11=
PLAYORDER=
